<svg xmlns="http://www.w3.org/2000/svg" xmlns:xlink="http://www.w3.org/1999/xlink" width="500" zoomAndPan="magnify" viewBox="0 0 375 374.999991" height="500" preserveAspectRatio="xMidYMid meet" version="1.0"><defs><clipPath id="e36dc3fbcc"><path d="M 12.785156 12.816406 L 362.035156 12.816406 L 362.035156 362.070312 L 12.785156 362.070312 Z M 12.785156 12.816406 " clip-rule="nonzero"/></clipPath><clipPath id="d0c6c31ebb"><path d="M 187.410156 12.816406 C 90.960938 12.816406 12.785156 91.003906 12.785156 187.445312 C 12.785156 283.882812 90.960938 362.070312 187.410156 362.070312 C 283.851562 362.070312 362.035156 283.882812 362.035156 187.445312 C 362.035156 91.003906 283.851562 12.816406 187.410156 12.816406 " clip-rule="nonzero"/></clipPath><clipPath id="e2fa26a2c2"><path d="M 12.785156 12.816406 L 362.617188 12.816406 L 362.617188 362.652344 L 12.785156 362.652344 Z M 12.785156 12.816406 " clip-rule="nonzero"/></clipPath><clipPath id="098c37d6b7"><path d="M 187.699219 12.816406 C 91.089844 12.816406 12.785156 91.132812 12.785156 187.734375 C 12.785156 284.335938 91.089844 362.652344 187.699219 362.652344 C 284.304688 362.652344 362.617188 284.335938 362.617188 187.734375 C 362.617188 91.132812 284.304688 12.816406 187.699219 12.816406 " clip-rule="nonzero"/></clipPath><clipPath id="f27bc14ab5"><path d="M 65.140625 65.183594 L 309.671875 65.183594 L 309.671875 309.703125 L 65.140625 309.703125 Z M 65.140625 65.183594 " clip-rule="nonzero"/></clipPath><clipPath id="ca4b7a184c"><path d="M 187.410156 65.183594 C 119.886719 65.183594 65.140625 119.917969 65.140625 187.445312 C 65.140625 254.96875 119.886719 309.703125 187.410156 309.703125 C 254.925781 309.703125 309.671875 254.96875 309.671875 187.445312 C 309.671875 119.917969 254.925781 65.183594 187.410156 65.183594 " clip-rule="nonzero"/></clipPath><clipPath id="a4cd8d2fa9"><path d="M 65.140625 65.183594 L 309.636719 65.183594 L 309.636719 309.675781 L 65.140625 309.675781 Z M 65.140625 65.183594 " clip-rule="nonzero"/></clipPath><clipPath id="84b0c486b8"><path d="M 187.390625 65.183594 C 119.878906 65.183594 65.140625 119.914062 65.140625 187.429688 C 65.140625 254.941406 119.878906 309.675781 187.390625 309.675781 C 254.90625 309.675781 309.636719 254.941406 309.636719 187.429688 C 309.636719 119.914062 254.90625 65.183594 187.390625 65.183594 " clip-rule="nonzero"/></clipPath><clipPath id="6096d45148"><path d="M 32.675781 232.757812 L 70.390625 232.757812 L 70.390625 270.472656 L 32.675781 270.472656 Z M 32.675781 232.757812 " clip-rule="nonzero"/></clipPath><clipPath id="177d1b08b6"><path d="M 307.792969 224.386719 L 345.507812 224.386719 L 345.507812 262.101562 L 307.792969 262.101562 Z M 307.792969 224.386719 " clip-rule="nonzero"/></clipPath><clipPath id="759d50646c"><path d="M 170 105 L 273 105 L 273 158.832031 L 170 158.832031 Z M 170 105 " clip-rule="nonzero"/></clipPath><clipPath id="473bf889d6"><path d="M 203 162 L 276.492188 162 L 276.492188 219.304688 L 203 219.304688 Z M 203 162 " clip-rule="nonzero"/></clipPath><clipPath id="2b4b80a8fb"><path d="M 85.320312 110.28125 L 198.714844 110.28125 L 198.714844 219.304688 L 85.320312 219.304688 Z M 85.320312 110.28125 " clip-rule="nonzero"/></clipPath><clipPath id="0f486df11e"><path d="M 115.480469 213 L 283.679688 213 L 283.679688 292 L 115.480469 292 Z M 115.480469 213 " clip-rule="nonzero"/></clipPath><clipPath id="08be4c58c9"><path d="M 186.921875 150.480469 L 298.535156 217.234375 L 227.117188 336.664062 L 115.503906 269.910156 Z M 186.921875 150.480469 " clip-rule="nonzero"/></clipPath><clipPath id="31a8b1bebf"><path d="M 186.921875 150.480469 L 298.535156 217.234375 L 227.117188 336.664062 L 115.503906 269.910156 Z M 186.921875 150.480469 " clip-rule="nonzero"/></clipPath><clipPath id="10fc047e69"><path d="M 249 207.382812 L 285.414062 207.382812 L 285.414062 240.332031 L 249 240.332031 Z M 249 207.382812 " clip-rule="nonzero"/></clipPath><clipPath id="f205581bf9"><path d="M 186.921875 150.480469 L 298.535156 217.234375 L 227.117188 336.664062 L 115.503906 269.910156 Z M 186.921875 150.480469 " clip-rule="nonzero"/></clipPath><clipPath id="24a3d665a6"><path d="M 186.921875 150.480469 L 298.535156 217.234375 L 227.117188 336.664062 L 115.503906 269.910156 Z M 186.921875 150.480469 " clip-rule="nonzero"/></clipPath></defs><g clip-path="url(#e36dc3fbcc)"><g clip-path="url(#d0c6c31ebb)"><path fill="#ffffff" d="M 12.785156 12.816406 L 362.035156 12.816406 L 362.035156 362.070312 L 12.785156 362.070312 Z M 12.785156 12.816406 " fill-opacity="1" fill-rule="nonzero"/></g></g><g clip-path="url(#e2fa26a2c2)"><g clip-path="url(#098c37d6b7)"><path stroke-linecap="butt" transform="matrix(1.302685, 0, 0, 1.302685, 12.781044, 12.817441)" fill="none" stroke-linejoin="miter" d="M 134.275148 -0.000794013 C 60.113397 -0.000794013 0.00315707 60.118442 0.00315707 134.274195 C 0.00315707 208.429949 60.113397 268.546186 134.275148 268.546186 C 208.430901 268.546186 268.550137 208.429949 268.550137 134.274195 C 268.550137 60.118442 208.430901 -0.000794013 134.275148 -0.000794013 " stroke="#2e568b" stroke-width="6" stroke-opacity="1" stroke-miterlimit="4"/></g></g><g clip-path="url(#f27bc14ab5)"><g clip-path="url(#ca4b7a184c)"><path fill="#ffffff" d="M 65.140625 65.183594 L 309.671875 65.183594 L 309.671875 309.703125 L 65.140625 309.703125 Z M 65.140625 65.183594 " fill-opacity="1" fill-rule="nonzero"/></g></g><g clip-path="url(#a4cd8d2fa9)"><g clip-path="url(#84b0c486b8)"><path stroke-linecap="butt" transform="matrix(1.300396, 0, 0, 1.300396, 65.144371, 65.180768)" fill="none" stroke-linejoin="miter" d="M 94.006955 0.00217321 C 42.090672 0.00217321 -0.00288099 42.086714 -0.00288099 94.009005 C -0.00288099 145.925288 42.090672 188.015836 94.006955 188.015836 C 145.926241 188.015836 188.013786 145.925288 188.013786 94.009005 C 188.013786 42.086714 145.926241 0.00217321 94.006955 0.00217321 " stroke="#2e568b" stroke-width="8" stroke-opacity="1" stroke-miterlimit="4"/></g></g><g clip-path="url(#6096d45148)"><path fill="#3ea266" d="M 70.390625 251.613281 C 56.25 254.214844 54.136719 256.328125 51.535156 270.464844 C 48.933594 256.328125 46.820312 254.214844 32.675781 251.613281 C 46.820312 249.007812 48.933594 246.902344 51.535156 232.757812 C 54.136719 246.902344 56.25 249.007812 70.390625 251.613281 Z M 70.390625 251.613281 " fill-opacity="1" fill-rule="nonzero"/></g><g clip-path="url(#177d1b08b6)"><path fill="#3ea266" d="M 345.507812 243.242188 C 331.367188 245.851562 329.257812 247.957031 326.652344 262.101562 C 324.050781 247.957031 321.9375 245.851562 307.792969 243.242188 C 321.9375 240.640625 324.050781 238.527344 326.652344 224.386719 C 329.257812 238.527344 331.367188 240.640625 345.507812 243.242188 Z M 345.507812 243.242188 " fill-opacity="1" fill-rule="nonzero"/></g><g clip-path="url(#759d50646c)"><path fill="#2e568b" d="M 219.664062 125.90625 C 232.203125 125.90625 243.242188 132.339844 249.699219 142.09375 L 272.925781 142.09375 C 264.855469 120.433594 244.054688 105.011719 219.664062 105.011719 C 198.566406 105.011719 180.148438 116.550781 170.339844 133.6875 L 183.832031 158.234375 C 185.75 140.070312 201.058594 125.90625 219.664062 125.90625 " fill-opacity="1" fill-rule="nonzero"/></g><g clip-path="url(#473bf889d6)"><path fill="#2e568b" d="M 216.710938 162.082031 L 216.710938 181.613281 L 249.996094 181.613281 C 243.589844 191.621094 232.398438 198.253906 219.664062 198.253906 C 213.976562 198.253906 208.589844 196.925781 203.800781 194.570312 L 217.289062 219.101562 C 218.078125 219.136719 218.867188 219.15625 219.664062 219.15625 C 251.058594 219.15625 276.507812 193.601562 276.507812 162.082031 L 216.710938 162.082031 " fill-opacity="1" fill-rule="nonzero"/></g><g clip-path="url(#2b4b80a8fb)"><path fill="#2e568b" d="M 85.308594 219.15625 L 154.945312 219.15625 L 154.945312 198.484375 L 120.128906 198.484375 L 137.535156 155.621094 L 172.40625 219.15625 L 198.273438 219.15625 L 137.082031 110.632812 L 85.308594 219.15625 " fill-opacity="1" fill-rule="nonzero"/></g><g clip-path="url(#0f486df11e)"><g clip-path="url(#08be4c58c9)"><g clip-path="url(#31a8b1bebf)"><path fill="#3ea266" d="M 283.132812 223.660156 C 282.339844 221.390625 278.910156 218.058594 272.824219 213.730469 C 269.257812 216.574219 265.074219 221.113281 260.257812 227.371094 C 255.433594 233.625 249.222656 240.519531 241.589844 248.097656 C 233.957031 255.6875 227.140625 261.171875 221.132812 264.621094 C 215.125 268.066406 209.863281 270.585938 205.34375 272.136719 C 196.304688 275.246094 187.011719 277.253906 177.488281 278.105469 C 156.15625 280.089844 135.511719 277.332031 115.542969 269.847656 C 117.507812 271.089844 119.492188 272.238281 121.539062 273.304688 C 127.964844 276.691406 134.542969 279.773438 141.289062 282.523438 C 147.664062 285.128906 154.207031 287.175781 160.917969 288.664062 C 167.957031 290.222656 175.324219 291.054688 182.945312 291.199219 C 190.59375 291.347656 198.246094 290.554688 205.894531 288.839844 C 213.546875 287.136719 220.613281 284.710938 227.117188 281.527344 C 233.625 278.34375 239.292969 274.921875 244.101562 271.25 C 248.933594 267.585938 254.046875 263.183594 259.398438 258.0625 C 264.769531 252.957031 270.253906 246.515625 275.855469 238.730469 C 281.507812 230.976562 283.929688 225.9375 283.132812 223.660156 Z M 283.132812 223.660156 " fill-opacity="1" fill-rule="nonzero"/></g></g></g><g clip-path="url(#10fc047e69)"><g clip-path="url(#f205581bf9)"><g clip-path="url(#24a3d665a6)"><path fill="#3ea266" d="M 282.054688 207.398438 C 269.671875 211.617188 258.863281 218.511719 249.617188 228.078125 C 257.621094 228.28125 265.433594 227.121094 273.078125 224.59375 C 273.308594 226.660156 274.136719 229.8125 275.558594 234.039062 C 276.988281 238.257812 280.070312 240.304688 284.796875 240.207031 C 285.523438 227.90625 284.59375 216.96875 282.054688 207.398438 Z M 282.054688 207.398438 " fill-opacity="1" fill-rule="nonzero"/></g></g></g><path fill="#151f4d" d="M 82.1875 307.601562 C 86.558594 311.746094 90.667969 312.152344 93.886719 308.765625 C 96.378906 306.140625 96.5625 303.226562 94.460938 299.371094 L 92.355469 295.511719 C 91.597656 294.109375 91.597656 293.066406 92.390625 292.226562 C 93.34375 291.222656 94.652344 291.378906 95.988281 292.648438 C 97.394531 293.988281 97.59375 295.449219 96.496094 296.941406 L 100.164062 300.4375 L 102.9375 297.523438 C 102.839844 294.753906 101.464844 292.132812 98.84375 289.640625 C 94.589844 285.609375 90.390625 285.15625 87.289062 288.425781 C 85.066406 290.761719 84.859375 293.519531 86.667969 296.867188 L 89.1875 301.535156 C 89.871094 302.820312 89.78125 304.003906 88.941406 304.894531 C 87.898438 305.988281 86.410156 305.886719 85.074219 304.613281 C 83.664062 303.28125 83.585938 301.886719 84.816406 300.105469 L 80.664062 296.160156 L 78.144531 298.808594 C 77.949219 301.941406 79.285156 304.839844 82.1875 307.601562 Z M 82.1875 307.601562 " fill-opacity="1" fill-rule="nonzero"/><path fill="#151f4d" d="M 98.101562 315.898438 L 96.03125 318.863281 L 104.625 324.84375 L 106.691406 321.878906 L 105.230469 320.292969 L 114.101562 307.546875 L 116.09375 308.371094 L 118.167969 305.398438 L 109.570312 299.417969 L 107.503906 302.390625 L 108.96875 303.96875 L 100.09375 316.722656 Z M 98.101562 315.898438 " fill-opacity="1" fill-rule="nonzero"/><path fill="#151f4d" d="M 113.730469 326.683594 L 112.214844 329.972656 L 121.726562 334.34375 L 123.242188 331.058594 L 121.523438 329.757812 L 125.597656 320.875 L 128.308594 337.371094 L 134.046875 340.011719 L 142.242188 322.183594 L 144.347656 322.644531 L 145.867188 319.359375 L 136.355469 314.984375 L 134.839844 318.277344 L 136.558594 319.578125 L 134.058594 325.015625 L 132.449219 330.324219 L 129.414062 311.792969 L 122.117188 308.441406 L 120.609375 311.734375 L 122.328125 313.027344 L 115.839844 327.140625 Z M 113.730469 326.683594 " fill-opacity="1" fill-rule="nonzero"/><path fill="#151f4d" d="M 155.375 346.265625 C 158.972656 347.074219 162.203125 346.789062 164.828125 345.453125 L 165.628906 341.890625 L 160.90625 340.828125 C 159.988281 342.242188 158.429688 342.703125 156.28125 342.222656 C 153.191406 341.53125 152.070312 339.621094 152.828125 336.25 L 154.15625 330.34375 C 154.914062 326.96875 156.742188 325.730469 159.824219 326.421875 C 161.976562 326.902344 163.183594 327.984375 163.414062 329.652344 L 168.136719 330.714844 L 168.933594 327.144531 C 167.132812 324.824219 164.328125 323.175781 160.730469 322.371094 C 153.925781 320.847656 149.347656 323.191406 148.074219 328.878906 L 146.703125 334.984375 C 145.429688 340.664062 148.558594 344.742188 155.375 346.265625 Z M 155.375 346.265625 " fill-opacity="1" fill-rule="nonzero"/><path fill="#151f4d" d="M 173.453125 345.386719 L 173.347656 349.007812 L 193.484375 349.585938 L 193.6875 342.609375 L 188.023438 342.445312 L 187.347656 345.390625 L 181.820312 345.230469 L 181.988281 339.378906 L 183.601562 339.425781 L 184.128906 341.742188 L 187.816406 341.847656 L 188.058594 333.226562 L 184.375 333.117188 L 183.714844 335.40625 L 182.105469 335.359375 L 182.273438 329.570312 L 188.125 329.738281 L 188.660156 331.730469 L 193.667969 331.871094 L 193.835938 325.882812 L 174.03125 325.316406 L 173.921875 328.933594 L 176.015625 329.453125 L 175.566406 344.984375 Z M 173.453125 345.386719 " fill-opacity="1" fill-rule="nonzero"/><path fill="#151f4d" d="M 214.378906 343.445312 L 215.285156 347.183594 L 232.625 342.976562 L 230.980469 336.199219 L 226.117188 337.375 L 226.238281 340.398438 L 220.609375 341.757812 L 226.5625 332.660156 C 228.414062 329.808594 228.847656 328.109375 228.324219 325.96875 C 227.335938 321.871094 223.617188 320.367188 218.050781 321.722656 C 214.078125 322.683594 211.363281 324.59375 210.265625 327.609375 L 210.992188 330.617188 L 215.921875 329.417969 C 215.476562 327.59375 216.4375 326.246094 218.515625 325.738281 C 220.535156 325.25 221.890625 325.96875 222.328125 327.765625 C 222.613281 328.941406 222.324219 329.832031 221.511719 331.246094 Z M 214.378906 343.445312 " fill-opacity="1" fill-rule="nonzero"/><path fill="#151f4d" d="M 249.644531 336.84375 C 255.3125 334.367188 257.148438 329.9375 254.785156 324.539062 L 252.351562 318.992188 C 249.988281 313.59375 245.492188 311.933594 239.824219 314.410156 C 234.152344 316.898438 232.324219 321.328125 234.6875 326.726562 L 237.113281 332.273438 C 239.476562 337.671875 243.980469 339.332031 249.644531 336.84375 Z M 248.039062 333.167969 C 245.804688 334.144531 244.347656 333.203125 242.84375 329.765625 L 240.417969 324.210938 C 238.90625 320.777344 239.207031 319.070312 241.433594 318.089844 C 243.667969 317.113281 245.121094 318.054688 246.628906 321.496094 L 249.054688 327.042969 C 250.558594 330.484375 250.265625 332.191406 248.039062 333.167969 Z M 248.039062 333.167969 " fill-opacity="1" fill-rule="nonzero"/><path fill="#151f4d" d="M 263.234375 325.507812 L 265.367188 328.714844 L 280.222656 318.832031 L 276.355469 313.019531 L 272.1875 315.796875 L 273.339844 318.585938 L 268.515625 321.796875 L 270.996094 311.210938 C 271.753906 307.898438 271.585938 306.152344 270.367188 304.316406 C 268.03125 300.804688 264.019531 300.671875 259.25 303.839844 C 255.859375 306.101562 253.953125 308.832031 253.953125 312.035156 L 255.667969 314.609375 L 259.886719 311.804688 C 258.84375 310.242188 259.285156 308.644531 261.066406 307.457031 C 262.792969 306.3125 264.316406 306.523438 265.339844 308.054688 C 266.011719 309.070312 266.039062 309.996094 265.765625 311.609375 Z M 263.234375 325.507812 " fill-opacity="1" fill-rule="nonzero"/><path fill="#151f4d" d="M 284.589844 310.46875 L 287.246094 313.25 L 300.15625 300.9375 L 295.339844 295.890625 L 291.722656 299.34375 L 293.335938 301.890625 L 289.144531 305.894531 L 289.753906 295.039062 C 289.921875 291.644531 289.449219 289.949219 287.929688 288.359375 C 285.019531 285.3125 281.046875 285.867188 276.902344 289.820312 C 273.949219 292.640625 272.554688 295.652344 273.109375 298.808594 L 275.242188 301.050781 L 278.910156 297.550781 C 277.613281 296.195312 277.769531 294.542969 279.320312 293.066406 C 280.820312 291.636719 282.355469 291.578125 283.628906 292.910156 C 284.46875 293.792969 284.660156 294.707031 284.664062 296.339844 Z M 284.589844 310.46875 " fill-opacity="1" fill-rule="nonzero"/><path fill="#151f4d" d="M 48.246094 188.871094 L 48 191.011719 L 29.253906 200.566406 L 30.207031 209.867188 L 33.96875 209.480469 L 34.296875 206.867188 L 50.066406 211.277344 L 50.738281 213.328125 L 54.339844 212.960938 L 53.25 202.253906 L 49.648438 202.621094 L 49.472656 205.449219 L 46.957031 204.78125 L 46.242188 197.777344 L 48.570312 196.613281 L 49.242188 198.65625 L 52.84375 198.292969 L 51.84375 188.496094 Z M 42.394531 199.652344 L 42.8125 203.71875 L 37.136719 202.246094 Z M 42.394531 199.652344 " fill-opacity="1" fill-rule="nonzero"/><path fill="#151f4d" d="M 53.601562 172.0625 C 54.152344 167.152344 52.796875 163.625 49.898438 161.679688 L 45.320312 161.164062 L 45.09375 159.015625 L 41.5 158.609375 L 40.386719 168.492188 L 43.992188 168.898438 L 44.683594 166.855469 L 48.246094 167.253906 C 49.160156 167.984375 49.753906 169.175781 49.511719 171.304688 C 49.160156 174.445312 47.390625 175.769531 43.957031 175.382812 L 37.9375 174.710938 C 34.5 174.324219 33.078125 172.578125 33.417969 169.503906 C 33.742188 166.625 35.28125 165.636719 36.609375 165.289062 L 37.148438 160.480469 L 33.519531 160.074219 C 31.921875 161.613281 29.847656 164.164062 29.300781 169.035156 C 28.535156 175.875 31.351562 180.265625 37.144531 180.914062 L 43.355469 181.613281 C 49.144531 182.257812 52.863281 178.667969 53.601562 172.0625 Z M 53.601562 172.0625 " fill-opacity="1" fill-rule="nonzero"/><path fill="#151f4d" d="M 52.492188 153.171875 L 55.933594 154.304688 L 59.808594 142.519531 C 61.359375 137.796875 60.484375 133.488281 56.109375 132.054688 C 53.074219 131.058594 51.0625 132.332031 49.871094 133.738281 C 49.65625 132.183594 48.597656 130.238281 45.910156 129.355469 C 41.464844 127.894531 38.53125 131.335938 37.238281 135.269531 L 33.417969 146.90625 L 36.859375 148.039062 L 37.949219 146.175781 L 52.710938 151.03125 Z M 45.96875 139.597656 L 45.191406 141.976562 L 39.839844 140.214844 L 40.644531 137.777344 C 41.304688 135.777344 42.578125 134.84375 44.390625 135.441406 C 46.113281 136.007812 46.6875 137.410156 45.96875 139.597656 Z M 55.683594 142.199219 L 54.726562 145.113281 L 49.003906 143.230469 L 49.960938 140.324219 C 50.515625 138.628906 51.652344 137.167969 53.839844 137.890625 C 55.59375 138.46875 56.433594 139.917969 55.683594 142.199219 Z M 55.683594 142.199219 " fill-opacity="1" fill-rule="nonzero"/><path fill="#151f4d" d="M 62.386719 126.472656 L 65.59375 128.160156 L 70.457031 118.886719 L 67.25 117.207031 L 65.863281 118.859375 L 52.113281 111.632812 L 52.683594 109.554688 L 49.476562 107.867188 L 44.609375 117.140625 L 47.816406 118.820312 L 49.199219 117.167969 L 62.957031 124.394531 Z M 62.386719 126.472656 " fill-opacity="1" fill-rule="nonzero"/><path fill="#151f4d" d="M 70.40625 110.136719 L 73.871094 112.757812 L 86.070312 96.640625 L 80.503906 92.429688 L 77.089844 96.945312 L 79.09375 99.203125 L 75.179688 104.378906 L 70.871094 85.304688 L 67.09375 82.445312 L 55.191406 98.167969 L 60.757812 102.371094 L 64.171875 97.863281 L 62.167969 95.597656 L 65.980469 90.558594 Z M 70.40625 110.136719 " fill-opacity="1" fill-rule="nonzero"/><path fill="#151f4d" d="M 101.050781 77.710938 L 103.210938 80.617188 L 111.609375 74.378906 L 109.457031 71.464844 L 107.484375 72.351562 L 98.183594 59.828125 L 99.242188 59.042969 L 101.746094 60.871094 L 105.5 58.089844 L 101.339844 52.488281 L 85.21875 64.457031 L 89.378906 70.058594 L 93.132812 67.273438 L 92.109375 64.347656 L 93.164062 63.5625 L 102.464844 76.085938 Z M 101.050781 77.710938 " fill-opacity="1" fill-rule="nonzero"/><path fill="#151f4d" d="M 119.273438 64.992188 L 120.832031 68.265625 L 139.019531 59.59375 L 136.011719 53.296875 L 130.902344 55.734375 L 131.640625 58.660156 L 126.648438 61.039062 L 124.128906 55.753906 L 125.585938 55.058594 L 127.109375 56.886719 L 130.441406 55.292969 L 126.730469 47.511719 L 123.40625 49.097656 L 123.859375 51.433594 L 122.402344 52.125 L 119.910156 46.894531 L 125.199219 44.375 L 126.582031 45.90625 L 131.101562 43.753906 L 128.527344 38.347656 L 110.636719 46.867188 L 112.195312 50.132812 L 114.296875 49.644531 L 120.972656 63.671875 Z M 119.273438 64.992188 " fill-opacity="1" fill-rule="nonzero"/><path fill="#151f4d" d="M 156.347656 54.910156 C 159.925781 54.003906 162.679688 52.289062 164.421875 49.910156 L 163.527344 46.367188 L 158.835938 47.554688 C 158.652344 49.234375 157.472656 50.34375 155.332031 50.886719 C 152.269531 51.664062 150.40625 50.472656 149.554688 47.121094 L 148.070312 41.25 C 147.222656 37.902344 148.292969 35.964844 151.355469 35.191406 C 153.496094 34.652344 155.0625 35.0625 156.023438 36.453125 L 160.710938 35.265625 L 159.816406 31.726562 C 157.152344 30.464844 153.910156 30.261719 150.339844 31.167969 C 143.574219 32.882812 140.550781 37.042969 141.980469 42.691406 L 143.519531 48.753906 C 144.949219 54.402344 149.589844 56.625 156.347656 54.910156 Z M 156.347656 54.910156 " fill-opacity="1" fill-rule="nonzero"/><path fill="#151f4d" d="M 171.144531 47.566406 L 171.28125 51.183594 L 181.738281 50.78125 L 181.601562 47.164062 L 179.480469 46.785156 L 179.25 40.667969 L 187.015625 40.378906 L 187.246094 46.496094 L 185.160156 47.03125 L 185.292969 50.652344 L 195.75 50.253906 L 195.617188 46.636719 L 193.496094 46.257812 L 192.90625 30.734375 L 194.992188 30.191406 L 194.859375 26.574219 L 184.398438 26.96875 L 184.535156 30.585938 L 186.65625 30.96875 L 186.859375 36.363281 L 179.097656 36.652344 L 178.894531 31.261719 L 180.980469 30.71875 L 180.84375 27.101562 L 170.386719 27.496094 L 170.519531 31.121094 L 172.648438 31.5 L 173.230469 47.023438 Z M 171.144531 47.566406 " fill-opacity="1" fill-rule="nonzero"/><path fill="#151f4d" d="M 202.769531 47.121094 L 202.078125 50.679688 L 212.351562 52.675781 L 213.042969 49.121094 L 211.066406 48.265625 L 212.929688 38.667969 L 219.457031 54.058594 L 225.664062 55.265625 L 229.410156 36.007812 L 231.570312 35.960938 L 232.261719 32.402344 L 221.984375 30.40625 L 221.292969 33.960938 L 223.273438 34.816406 L 222.128906 40.695312 L 221.824219 46.234375 L 214.488281 28.949219 L 206.601562 27.410156 L 205.910156 30.96875 L 207.894531 31.820312 L 204.921875 47.074219 Z M 202.769531 47.121094 " fill-opacity="1" fill-rule="nonzero"/><path fill="#151f4d" d="M 243.53125 62.585938 C 250.058594 65.472656 255.066406 64.082031 257.417969 58.753906 L 259.941406 53.027344 C 262.292969 47.699219 259.949219 43.066406 253.414062 40.179688 C 246.882812 37.300781 241.878906 38.691406 239.527344 44.019531 L 237 49.738281 C 234.652344 55.066406 236.996094 59.699219 243.53125 62.585938 Z M 245.203125 58.792969 C 242.164062 57.453125 241.371094 55.339844 242.765625 52.175781 L 245.210938 46.632812 C 246.605469 43.472656 248.699219 42.632812 251.742188 43.980469 C 254.78125 45.320312 255.574219 47.433594 254.179688 50.597656 L 251.734375 56.136719 C 250.339844 59.292969 248.246094 60.132812 245.203125 58.792969 Z M 245.203125 58.792969 " fill-opacity="1" fill-rule="nonzero"/><path fill="#151f4d" d="M 261.757812 67.261719 L 259.671875 70.222656 L 275.078125 81.09375 L 279.101562 75.390625 L 274.476562 72.125 L 272.289062 74.207031 L 268.820312 71.761719 L 277.808594 59.011719 L 279.800781 59.851562 L 281.886719 56.894531 L 273.332031 50.859375 L 271.246094 53.816406 L 272.703125 55.410156 L 263.746094 68.101562 Z M 261.757812 67.261719 " fill-opacity="1" fill-rule="nonzero"/><path fill="#151f4d" d="M 287.371094 93.511719 C 292.273438 98.703125 297.429688 99.359375 301.664062 95.355469 L 306.207031 91.054688 C 310.433594 87.050781 310.070312 81.875 305.15625 76.6875 C 300.253906 71.5 295.097656 70.84375 290.867188 74.847656 L 286.328125 79.140625 C 282.09375 83.148438 282.460938 88.324219 287.371094 93.511719 Z M 290.386719 90.667969 C 288.097656 88.25 288.183594 85.996094 290.695312 83.617188 L 295.09375 79.457031 C 297.605469 77.082031 299.863281 77.121094 302.144531 79.53125 C 304.433594 81.953125 304.34375 84.207031 301.832031 86.585938 L 297.4375 90.742188 C 294.921875 93.121094 292.667969 93.078125 290.386719 90.667969 Z M 290.386719 90.667969 " fill-opacity="1" fill-rule="nonzero"/><path fill="#151f4d" d="M 304.597656 116.023438 C 307.160156 120.246094 310.398438 122.210938 313.878906 121.980469 L 317.8125 119.589844 L 319.304688 121.144531 L 322.398438 119.261719 L 317.230469 110.769531 L 314.144531 112.652344 L 314.839844 114.691406 L 311.773438 116.554688 C 310.605469 116.535156 309.40625 115.949219 308.296875 114.128906 C 306.652344 111.425781 307.246094 109.292969 310.199219 107.496094 L 315.375 104.355469 C 318.328125 102.558594 320.523438 103.066406 322.136719 105.710938 C 323.640625 108.1875 323.03125 109.910156 322.183594 110.992188 L 324.703125 115.132812 L 327.824219 113.234375 C 328.144531 111.035156 328.226562 107.75 325.679688 103.554688 C 322.101562 97.683594 317.183594 95.929688 312.207031 98.957031 L 306.863281 102.207031 C 301.882812 105.234375 301.144531 110.347656 304.597656 116.023438 Z M 304.597656 116.023438 " fill-opacity="1" fill-rule="nonzero"/><path fill="#151f4d" d="M 316.839844 130.605469 L 313.472656 131.941406 L 317.320312 141.675781 L 320.6875 140.339844 L 320.339844 138.214844 L 334.789062 132.503906 L 335.992188 134.292969 L 339.359375 132.964844 L 335.511719 123.230469 L 332.144531 124.558594 L 332.492188 126.691406 L 318.042969 132.394531 Z M 316.839844 130.605469 " fill-opacity="1" fill-rule="nonzero"/><path fill="#151f4d" d="M 323.257812 147.441406 L 319.714844 148.207031 L 323.964844 167.898438 L 330.785156 166.429688 L 329.59375 160.894531 L 326.570312 160.941406 L 325.40625 155.535156 L 331.136719 154.296875 L 331.476562 155.875 L 329.347656 156.9375 L 330.121094 160.542969 L 338.554688 158.726562 L 337.773438 155.125 L 335.398438 155.027344 L 335.058594 153.457031 L 340.722656 152.230469 L 341.953125 157.960938 L 340.152344 158.957031 L 341.203125 163.847656 L 347.0625 162.585938 L 342.886719 143.214844 L 339.347656 143.980469 L 339.339844 146.136719 L 324.152344 149.40625 Z M 323.257812 147.441406 " fill-opacity="1" fill-rule="nonzero"/><path fill="#151f4d" d="M 324.507812 184.1875 C 324.636719 190.210938 327.238281 193.421875 331.914062 193.320312 C 335.535156 193.246094 337.730469 191.320312 338.992188 187.109375 L 340.25 182.902344 C 340.71875 181.378906 341.457031 180.640625 342.609375 180.613281 C 343.988281 180.585938 344.800781 181.621094 344.84375 183.464844 C 344.882812 185.40625 343.984375 186.578125 342.148438 186.84375 L 342.253906 191.917969 L 346.273438 191.828125 C 348.167969 189.808594 349.0625 187 348.988281 183.375 C 348.867188 177.515625 346.226562 174.21875 341.722656 174.3125 C 338.488281 174.378906 336.390625 176.167969 335.285156 179.8125 L 333.742188 184.886719 C 333.316406 186.273438 332.40625 187.054688 331.1875 187.082031 C 329.675781 187.109375 328.695312 185.976562 328.65625 184.132812 C 328.613281 182.195312 329.550781 181.152344 331.683594 180.78125 L 331.5625 175.050781 L 327.910156 175.132812 C 325.546875 177.191406 324.429688 180.179688 324.507812 184.1875 Z M 324.507812 184.1875 " fill-opacity="1" fill-rule="nonzero"/></svg>